<svg width="10.079mm" height="12.329mm" version="1.1" viewBox="-.3 0 10.079 12.329" xmlns="http://www.w3.org/2000/svg" xmlns:cc="http://creativecommons.org/ns#" xmlns:dc="http://purl.org/dc/elements/1.1/" xmlns:rdf="http://www.w3.org/1999/02/22-rdf-syntax-ns#">
  <defs>
    <clipPath id="a">
      <path d="m473.45 610.62h28.571v-34.949h-28.571z" fill="#ececec"/>
  </clipPath>
  </defs>
<g transform="translate(-125.62 -132.51)">
<g transform="matrix(.35278 0 0 -.35278 -41.707 347.92)">
<g clip-path="url(#a)">
<g transform="translate(475.41 610.62)">
<path d="m0 0c-1.082 0-1.959-0.877-1.959-1.959 0-0.277 0.059-0.54 0.163-0.778 0.179-0.408 0.463-1.249 0.463-1.985v-28.891c0-0.736 0.596-1.336 1.333-1.336 0.736 0 1.336 0.6 1.336 1.336v28.891c0 0.736 0.283 1.577 0.459 1.985 0.105 0.238 0.163 0.501 0.163 0.778 3e-3 1.079-0.876 1.959-1.958 1.959" fill="#ececec"/>
</g>
<g transform="translate(497.15 596.97)">
<path d="m0 0c-0.27-0.368-0.267-0.863 8e-3 -1.198 1.465-1.776 2.973-3.233 4.397-4.395 1.255-1.025-0.381-1.772-0.748-1.928-7.47-3.191-14.934 3.485-22.399 1.452v15.76c7.477 2.034 14.953-4.671 22.43-1.439 0.365 0.156 0.698 0.118 0.859-0.128 0.16-0.244 0.12-0.664-0.103-1.075-1.481-2.716-2.963-5.018-4.444-7.049" fill="#ececec"/>
</g>
</g>
</g>
</g>
</svg>
